<?xml version="1.0" encoding="UTF-8" standalone="no"?>
<svg
   xmlns:ooo="http://xml.openoffice.org/svg/export"
   xmlns:dc="http://purl.org/dc/elements/1.1/"
   xmlns:cc="http://creativecommons.org/ns#"
   xmlns:rdf="http://www.w3.org/1999/02/22-rdf-syntax-ns#"
   xmlns:svg="http://www.w3.org/2000/svg"
   xmlns="http://www.w3.org/2000/svg"
   id="svg4045"
   xml:space="preserve"
   preserveAspectRatio="xMidYMid"
   viewBox="8577 1570 3056.4667 3527.778"
   height="125"
   width="108.3"
   version="1.2"
   style="fill-rule:evenodd;stroke-width:28.22200012;stroke-linejoin:round"><title
     id="title3426">caterpillar</title><metadata
     id="metadata4049"><rdf:RDF><cc:Work
         rdf:about=""><dc:format>image/svg+xml</dc:format><dc:type
           rdf:resource="http://purl.org/dc/dcmitype/StillImage" /><dc:title>caterpillar</dc:title></cc:Work></rdf:RDF></metadata><defs
     id="defs3908"
     class="ClipPathGroup"><clipPath
       clipPathUnits="userSpaceOnUse"
       id="presentation_clip_path"><rect
         id="rect3902"
         height="7559"
         width="12304"
         y="1570"
         x="8577" /></clipPath><clipPath
       clipPathUnits="userSpaceOnUse"
       id="presentation_clip_path_shrink"><rect
         id="rect3905"
         height="7544"
         width="12280"
         y="1577"
         x="8589" /></clipPath></defs><defs
     id="defs3912"
     class="TextShapeIndex"><g
       id="g3910"
       ooo:id-list="id3 id4 id5 id6 id7 id8 id9 id10 id11 id12 id13"
       ooo:slide="id1" /></defs><defs
     id="defs3944"
     class="EmbeddedBulletChars"><g
       transform="scale(4.8828125e-4,-4.8828125e-4)"
       id="bullet-char-template-57356"><path
         id="path3914"
         d="M 580,1141 1163,571 580,0 -4,571 580,1141 Z" /></g><g
       transform="scale(4.8828125e-4,-4.8828125e-4)"
       id="bullet-char-template-57354"><path
         id="path3917"
         d="m 8,1128 1129,0 L 1137,0 8,0 8,1128 Z" /></g><g
       transform="scale(4.8828125e-4,-4.8828125e-4)"
       id="bullet-char-template-10146"><path
         id="path3920"
         d="M 174,0 602,739 174,1481 1456,739 174,0 Z m 1184,739 -1049,607 350,-607 699,0 z" /></g><g
       transform="scale(4.8828125e-4,-4.8828125e-4)"
       id="bullet-char-template-10132"><path
         id="path3923"
         d="M 2015,739 1276,0 717,0 l 543,543 -1086,0 0,393 1086,0 -543,545 557,0 741,-742 z" /></g><g
       transform="scale(4.8828125e-4,-4.8828125e-4)"
       id="bullet-char-template-10007"><path
         id="path3926"
         d="m 0,-2 c -7,16 -16,29 -25,39 l 381,530 c -94,256 -141,385 -141,387 0,25 13,38 40,38 9,0 21,-2 34,-5 21,4 42,12 65,25 l 27,-13 111,-251 280,301 64,-25 24,25 c 21,-10 41,-24 62,-43 C 886,937 835,863 770,784 769,783 710,716 594,584 L 774,223 c 0,-27 -21,-55 -63,-84 l 16,-20 C 717,90 699,76 672,76 641,76 570,178 457,381 L 164,-76 c -22,-34 -53,-51 -92,-51 -42,0 -63,17 -64,51 -7,9 -10,24 -10,44 0,9 1,19 2,30 z" /></g><g
       transform="scale(4.8828125e-4,-4.8828125e-4)"
       id="bullet-char-template-10004"><path
         id="path3929"
         d="M 285,-33 C 182,-33 111,30 74,156 52,228 41,333 41,471 c 0,78 14,145 41,201 34,71 87,106 158,106 53,0 88,-31 106,-94 l 23,-176 c 8,-64 28,-97 59,-98 l 735,706 c 11,11 33,17 66,17 42,0 63,-15 63,-46 l 0,-122 c 0,-36 -10,-64 -30,-84 L 442,47 C 390,-6 338,-33 285,-33 Z" /></g><g
       transform="scale(4.8828125e-4,-4.8828125e-4)"
       id="bullet-char-template-9679"><path
         id="path3932"
         d="M 813,0 C 632,0 489,54 383,161 276,268 223,411 223,592 c 0,181 53,324 160,431 106,107 249,161 430,161 179,0 323,-54 432,-161 108,-107 162,-251 162,-431 0,-180 -54,-324 -162,-431 C 1136,54 992,0 813,0 Z" /></g><g
       transform="scale(4.8828125e-4,-4.8828125e-4)"
       id="bullet-char-template-8226"><path
         id="path3935"
         d="m 346,457 c -73,0 -137,26 -191,78 -54,51 -81,114 -81,188 0,73 27,136 81,188 54,52 118,78 191,78 73,0 134,-26 185,-79 51,-51 77,-114 77,-187 0,-75 -25,-137 -76,-188 -50,-52 -112,-78 -186,-78 z" /></g><g
       transform="scale(4.8828125e-4,-4.8828125e-4)"
       id="bullet-char-template-8211"><path
         id="path3938"
         d="m -4,459 1139,0 0,147 -1139,0 0,-147 z" /></g><g
       transform="scale(4.8828125e-4,-4.8828125e-4)"
       id="bullet-char-template-61548"><path
         id="path3941"
         d="m 173,740 c 0,163 58,303 173,419 116,115 255,173 419,173 163,0 302,-58 418,-173 116,-116 174,-256 174,-419 0,-163 -58,-303 -174,-418 C 1067,206 928,148 765,148 601,148 462,206 346,322 231,437 173,577 173,740 Z" /></g></defs><defs
     id="defs3946"
     class="TextEmbeddedBitmaps" /><g
     transform="matrix(1.0682861,0,0,1.0682861,-5555.7971,-4419.3201)"
     id="g207"><g
       id="g4306"
       transform="matrix(26.458333,0,0,26.458333,13237.37,5601.5376)"><polygon
         style="fill:#f8f8f8"
         class="st0"
         points="54.2,125 0,93 0,31.2 54.2,0 108.3,31.2 108.3,93 "
         id="polygon4304" /></g><g
       id="Mask-2"
       transform="matrix(26.458333,0,0,26.458333,13237.37,5601.5376)"
       style="fill:#00aa88"><path
         style="fill:#00aa88"
         id="path-2-2"
         class="st1"
         d="m 7,36 46.8,-27 46.8,27 0,53.3 L 53.8,117 7,89.3 Z" /></g><g
       id="g4315"
       transform="matrix(26.458333,0,0,26.458333,13237.37,5601.5376)"><g
         style="opacity:0.15"
         id="Path-295"
         class="st2"><path
           d="M 101.8,36 54,65.3 101.3,89.5 Z"
           id="path4310" /><path
           d="M 6,36 53.8,65.3 6.6,89.6 Z"
           id="path4312" /></g></g><g
       class="SlideGroup"
       id="g4043"
       transform="matrix(0.17403708,0,0,0.17403708,12086.158,6160.4392)"><g
         id="g4041"><g
           id="container-id1"><g
             id="id1"
             class="Slide"
             clip-path="url(#presentation_clip_path)"><g
               class="Page"
               id="g4037"><g
                 class="com.sun.star.drawing.CustomShape"
                 id="g3953"><g
                   id="id3"><rect
                     class="BoundingBox"
                     x="8577"
                     y="3929"
                     width="5293"
                     height="5201"
                     id="rect3948"
                     style="fill:none;stroke:none" /><path
                     d="m 12191,5346 c -579,0 -1048,469 -1048,1048 0,578 469,1048 1048,1048 579,0 1048,-470 1048,-1048 0,-579 -469,-1048 -1048,-1048 z m -2094,-20 c -578,0 -1047,469 -1047,1048 0,579 469,1048 1047,1048 579,0 1048,-469 1048,-1048 0,-579 -469,-1048 -1048,-1048 z m 1126,-1397 c 1461,0 2646,1164 2646,2600 0,1435 -1185,2600 -2646,2600 -1462,0 -2646,-1165 -2646,-2600 0,-1436 1184,-2600 2646,-2600 z m -2646,0 z m 5292,5200 z"
                     id="path3950"
                     style="fill:#000000;stroke:none" /></g></g><g
                 class="com.sun.star.drawing.CustomShape"
                 id="g3960"><g
                   id="id4"><rect
                     class="BoundingBox"
                     x="12869"
                     y="5156"
                     width="3094"
                     height="3953"
                     id="rect3955"
                     style="fill:none;stroke:none" /><path
                     d="m 14049,5156 c 1056,0 1912,884 1912,1976 0,1091 -856,1976 -1912,1976 -396,0 -764,-125 -1069,-338 l -111,-95 10,-6 c 704,-467 1167,-1258 1167,-2156 0,-359 -74,-701 -208,-1012 l -170,-306 z m -1180,0 z m 3092,3952 z"
                     id="path3957"
                     style="fill:#000000;stroke:none" /></g></g><g
                 class="com.sun.star.drawing.CustomShape"
                 id="g3967"><g
                   id="id5"><rect
                     class="BoundingBox"
                     x="15513"
                     y="6182"
                     width="2457"
                     height="2934"
                     id="rect3962"
                     style="fill:none;stroke:none" /><path
                     d="m 16584,6182 c 765,0 1385,656 1385,1466 0,810 -620,1467 -1385,1467 -383,0 -729,-165 -979,-430 l -92,-118 36,-31 c 346,-358 560,-852 560,-1397 0,-273 -54,-533 -151,-770 l -9,-17 96,-55 c 165,-74 348,-115 539,-115 z m -1071,0 z m 2456,2933 z"
                     id="path3964"
                     style="fill:#000000;stroke:none" /></g></g><g
                 class="com.sun.star.drawing.CustomShape"
                 id="g3974"><g
                   id="id6"><rect
                     class="BoundingBox"
                     x="17634"
                     y="6839"
                     width="1929"
                     height="2272"
                     id="rect3969"
                     style="fill:none;stroke:none" /><path
                     d="m 18444,6839 c 617,0 1118,508 1118,1135 0,627 -501,1136 -1118,1136 -308,0 -588,-128 -790,-333 l -20,-26 81,-71 c 251,-266 406,-632 406,-1037 0,-203 -39,-396 -109,-571 l -58,-114 55,-30 c 134,-58 281,-89 435,-89 z m -810,0 z m 1928,2271 z"
                     id="path3971"
                     style="fill:#000000;stroke:none" /></g></g><g
                 class="com.sun.star.drawing.CustomShape"
                 id="g3981"><g
                   id="id7"><rect
                     class="BoundingBox"
                     x="19476"
                     y="7630"
                     width="1407"
                     height="1500"
                     id="rect3976"
                     style="fill:none;stroke:none" /><path
                     d="m 20145,7630 c 406,0 736,335 736,749 0,414 -330,750 -736,750 -203,0 -387,-84 -520,-220 l -149,-226 44,-55 c 121,-181 191,-400 191,-635 l -20,-200 43,-35 c 117,-81 259,-128 411,-128 z m -669,0 z m 1405,1499 z"
                     id="path3978"
                     style="fill:#000000;stroke:none" /></g></g><g
                 class="Group"
                 id="g4001"><g
                   class="com.sun.star.drawing.CustomShape"
                   id="g3992"><g
                     id="id8"><rect
                       class="BoundingBox"
                       x="9251"
                       y="2120"
                       width="1737"
                       height="3111"
                       id="rect3983"
                       style="fill:none;stroke:none" /><path
                       d="m 10118,2200 0,0 41,2 40,6 40,10 40,13 40,18 39,21 38,25 38,29 36,32 36,36 35,39 34,43 32,45 31,49 30,52 28,54 27,57 25,60 24,62 21,64 20,67 18,68 16,69 15,72 12,72 10,74 8,74 7,75 4,76 2,76 0,76 -2,76"
                       id="path3985"
                       style="fill:none;stroke:#000000;stroke-width:159;stroke-linejoin:miter" /><path
                       d="M 9331,2200 Z"
                       id="path3987"
                       style="fill:none;stroke:#000000;stroke-width:159;stroke-linejoin:miter" /><path
                       d="M 10907,5150 Z"
                       id="path3989"
                       style="fill:none;stroke:#000000;stroke-width:159;stroke-linejoin:miter" /></g></g><g
                   class="com.sun.star.drawing.CustomShape"
                   id="g3999"><g
                     id="id9"><rect
                       class="BoundingBox"
                       x="9274"
                       y="1570"
                       width="1133"
                       height="1112"
                       id="rect3994"
                       style="fill:none;stroke:none" /><path
                       d="m 9276,2125 0,0 1,-29 2,-29 4,-29 5,-28 7,-28 9,-28 9,-28 12,-26 12,-27 15,-25 15,-25 17,-24 18,-23 19,-22 20,-21 22,-20 22,-19 23,-18 25,-16 25,-15 26,-14 27,-13 27,-11 28,-10 28,-8 29,-7 29,-5 29,-4 29,-2 30,-1 0,0 30,1 29,2 29,4 29,5 29,7 28,8 28,10 27,11 27,12 26,14 25,16 25,16 23,18 22,19 22,20 20,21 19,22 18,23 17,24 15,25 15,25 12,26 12,27 9,27 9,28 7,29 5,28 4,29 2,29 1,29 0,0 -1,29 -2,29 -4,29 -5,28 -7,28 -9,28 -9,28 -12,26 -12,27 -15,25 -15,25 -17,24 -18,23 -19,22 -20,21 -22,20 -22,19 -23,18 -25,16 -25,15 -26,14 -27,13 -27,11 -28,10 -28,8 -29,7 -29,5 -29,4 -29,2 -30,1 0,-1 -30,-1 -29,-2 -29,-4 -29,-5 -29,-7 -28,-8 -28,-10 -28,-11 -26,-12 -26,-14 -25,-15 -25,-17 -23,-17 -23,-19 -21,-20 -21,-21 -19,-22 -18,-23 -16,-24 -16,-25 -14,-25 -13,-27 -11,-26 -10,-28 -9,-28 -6,-28 -6,-28 -4,-29 -2,-29 -1,-29 z m 0,-555 z m 1130,1111 z"
                       id="path3996"
                       style="fill:#000000;stroke:none" /></g></g></g><g
                 class="com.sun.star.drawing.CustomShape"
                 id="g4008"><g
                   id="id10"><rect
                     class="BoundingBox"
                     x="9119"
                     y="6044"
                     width="1310"
                     height="1234"
                     id="rect4003"
                     style="fill:none;stroke:none" /><path
                     d="m 9120,6660 0,0 1,-31 2,-31 4,-31 6,-31 8,-30 9,-30 10,-30 13,-29 13,-28 16,-28 16,-26 19,-27 19,-25 21,-24 22,-23 24,-22 24,-21 26,-20 27,-18 27,-17 29,-16 29,-15 30,-13 31,-11 31,-11 32,-8 32,-7 33,-6 33,-4 33,-2 33,-1 0,0 34,1 34,2 34,5 34,5 33,8 33,9 32,11 31,12 31,14 30,15 29,17 28,18 28,20 26,21 24,22 24,23 22,25 21,25 19,27 18,27 16,29 15,29 13,30 12,30 10,31 8,31 6,32 4,32 3,32 1,32 0,0 -1,32 -3,32 -4,32 -6,32 -8,31 -10,31 -11,31 -13,29 -15,29 -16,29 -18,27 -20,27 -20,25 -23,25 -23,23 -25,22 -26,21 -27,20 -28,18 -29,17 -30,16 -31,13 -32,13 -32,11 -33,9 -33,7 -34,6 -34,5 -34,2 -34,1 0,0 -34,-1 -34,-2 -34,-5 -34,-5 -33,-8 -33,-9 -32,-11 -32,-12 -31,-14 -30,-15 -29,-17 -28,-18 -27,-20 -26,-21 -25,-22 -24,-23 -22,-25 -21,-25 -19,-27 -18,-27 -16,-29 -15,-29 -13,-30 -12,-30 -9,-31 -9,-31 -6,-32 -4,-32 -3,-32 -1,-32 z m 0,-616 z m 1308,1232 z"
                     id="path4005"
                     style="fill:#000000;stroke:none" /></g></g><g
                 class="com.sun.star.drawing.CustomShape"
                 id="g4015"><g
                   id="id11"><rect
                     class="BoundingBox"
                     x="11213"
                     y="6063"
                     width="1310"
                     height="1233"
                     id="rect4010"
                     style="fill:none;stroke:none" /><path
                     d="m 11214,6679 0,0 1,-31 2,-31 4,-31 6,-31 8,-30 9,-30 10,-30 13,-29 13,-28 16,-28 16,-26 19,-27 19,-25 21,-24 22,-23 24,-22 24,-21 26,-20 27,-18 27,-17 29,-16 29,-15 30,-13 31,-11 31,-11 32,-8 32,-7 33,-6 33,-4 33,-2 33,-1 0,0 34,1 34,2 34,5 34,5 33,8 33,9 32,11 31,12 31,14 30,15 29,17 28,18 28,20 26,21 24,22 24,23 22,25 21,25 19,27 18,27 16,29 15,29 13,30 12,30 10,31 8,31 6,32 4,32 3,32 1,32 0,0 -1,32 -3,32 -4,32 -6,32 -8,31 -10,31 -11,31 -13,29 -15,29 -16,29 -18,27 -20,27 -20,25 -23,25 -23,23 -25,22 -26,21 -27,20 -28,18 -29,17 -30,16 -31,13 -32,13 -32,11 -33,9 -33,7 -34,6 -34,5 -34,2 -34,1 0,0 -34,-1 -34,-2 -34,-5 -34,-5 -33,-8 -33,-9 -32,-11 -32,-12 -31,-14 -30,-15 -29,-17 -28,-18 -27,-20 -26,-21 -25,-22 -24,-23 -22,-25 -21,-25 -19,-27 -18,-27 -16,-29 -15,-29 -13,-30 -12,-30 -9,-31 -9,-31 -6,-32 -4,-32 -3,-32 -1,-32 z m 0,-616 z m 1308,1232 z"
                     id="path4012"
                     style="fill:#000000;stroke:none" /></g></g><g
                 class="Group"
                 id="g4035"><g
                   class="com.sun.star.drawing.CustomShape"
                   id="g4026"><g
                     id="id12"><rect
                       class="BoundingBox"
                       x="11623"
                       y="2172"
                       width="1737"
                       height="3111"
                       id="rect4017"
                       style="fill:none;stroke:none" /><path
                       d="m 12492,2252 0,0 -41,2 -40,6 -40,10 -40,13 -40,18 -39,21 -38,25 -38,29 -36,32 -36,36 -35,39 -34,43 -32,45 -31,49 -30,52 -28,54 -27,57 -25,60 -24,62 -21,64 -20,67 -18,68 -16,69 -15,72 -12,72 -10,74 -8,74 -7,75 -4,76 -2,76 0,76 2,76"
                       id="path4019"
                       style="fill:none;stroke:#000000;stroke-width:159;stroke-linejoin:miter" /><path
                       d="M 13279,2252 Z"
                       id="path4021"
                       style="fill:none;stroke:#000000;stroke-width:159;stroke-linejoin:miter" /><path
                       d="M 11703,5202 Z"
                       id="path4023"
                       style="fill:none;stroke:#000000;stroke-width:159;stroke-linejoin:miter" /></g></g><g
                   class="com.sun.star.drawing.CustomShape"
                   id="g4033"><g
                     id="id13"><rect
                       class="BoundingBox"
                       x="12204"
                       y="1622"
                       width="1132"
                       height="1112"
                       id="rect4028"
                       style="fill:none;stroke:none" /><path
                       d="m 13334,2177 0,0 -1,-29 -2,-29 -4,-29 -5,-28 -7,-28 -9,-28 -9,-28 -12,-26 -12,-27 -15,-25 -15,-25 -17,-24 -18,-23 -19,-22 -20,-21 -22,-20 -22,-19 -23,-18 -25,-16 -25,-15 -26,-14 -27,-13 -27,-11 -28,-10 -28,-8 -29,-7 -29,-5 -29,-4 -29,-2 -30,-1 0,0 -30,1 -29,2 -29,4 -29,5 -29,7 -28,8 -28,10 -27,11 -27,12 -26,14 -25,16 -25,16 -23,18 -22,19 -22,20 -20,21 -19,22 -18,23 -17,24 -15,25 -15,25 -12,26 -12,27 -9,27 -9,28 -7,29 -5,28 -4,29 -2,29 -1,29 0,0 1,29 2,29 4,29 5,28 7,28 9,28 9,28 12,26 12,27 15,25 15,25 17,24 18,23 19,22 20,21 22,20 22,19 23,18 25,16 25,15 26,14 27,13 27,11 28,10 28,8 29,7 29,5 29,4 29,2 30,1 0,-1 30,-1 29,-2 29,-4 29,-5 29,-7 28,-8 28,-10 28,-11 26,-12 26,-14 25,-15 25,-17 23,-17 23,-19 21,-20 21,-21 19,-22 18,-23 16,-24 16,-25 14,-25 13,-27 11,-26 10,-28 9,-28 6,-28 6,-28 4,-29 2,-29 1,-29 z m 0,-555 z m -1130,1111 z"
                       id="path4030"
                       style="fill:#000000;stroke:none" /></g></g></g></g></g></g></g></g></g><style
     type="text/css"
     id="style4300">
	.st0{fill:#F8F8F8;}
	.st1{fill:#F26522;}
	.st2{opacity:0.15;}
	.st3{fill:#231F20;}
</style></svg>